{
    "asset" : {
        "generator" : "Khronos glTF Blender I/O v1.6.16",
        "version" : "2.0"
    },
    "scene" : 0,
    "scenes" : [
        {
            "extras" : {
                "b_export" : 1,
                "export_path" : "F:\\Programmi\\Blender2.93\\2.93\\Projects\\3d-gallery\\model\\a-frame\\export13\\",
                "s_project_name" : "3d-gallery",
                "b_settings" : 1,
                "b_renderer" : 1,
                "b_player" : 1,
                "b_interactive" : 1,
                "b_bake_lightmap" : 1,
                "s_output" : "exporting...",
                "b_use_lightmapper" : 0,
                "b_show_env_sky" : 1,
                "b_raycast" : 0,
                "b_joystick" : 0,
                "f_player_height" : 1,
                "b_use_default_lights" : 0,
                "b_physicallyCorrectLights" : 0,
                "b_colorManagement" : 1,
                "b_aa" : 1,
                "b_stats" : 1,
                "b_cast_shadows" : 1,
                "b_cubemap" : 1,
                "b_cubemap_background" : 1,
                "b_camera_cube" : 1,
                "s_showhide_object" : "Cube.001",
                "s_toggle_object" : "{\"1\": \"Cube.001\", \"2\": \"Cube.002\"}",
                "b_vr_controllers" : 0
            },
            "name" : "Scene",
            "nodes" : [
                0
            ]
        }
    ],
    "nodes" : [
        {
            "extras" : {},
            "mesh" : 0,
            "name" : "Bar_gplant",
            "rotation" : [
                0.3265056014060974,
                0.627211332321167,
                -0.6272114515304565,
                0.32650551199913025
            ],
            "scale" : [
                0.0022452478297054768,
                0.0022452478297054768,
                0.002245247131213546
            ]
        }
    ],
    "materials" : [
        {
            "doubleSided" : true,
            "extras" : {},
            "name" : "M_Green.001",
            "pbrMetallicRoughness" : {
                "baseColorFactor" : [
                    0.0023270549718290567,
                    0.07323518395423889,
                    0,
                    1
                ],
                "metallicFactor" : 0,
                "roughnessFactor" : 0.8114382028579712
            }
        },
        {
            "doubleSided" : true,
            "extras" : {},
            "name" : "M_Soil.001",
            "normalTexture" : {
                "index" : 0
            },
            "pbrMetallicRoughness" : {
                "baseColorFactor" : [
                    0.057504113763570786,
                    0.011507918126881123,
                    0.004188797902315855,
                    1
                ],
                "metallicFactor" : 0,
                "roughnessFactor" : 0.5
            }
        },
        {
            "doubleSided" : true,
            "extras" : {},
            "name" : "M_Terrazo.001",
            "pbrMetallicRoughness" : {
                "baseColorFactor" : [
                    0.800000011920929,
                    0.800000011920929,
                    0.800000011920929,
                    1
                ],
                "metallicFactor" : 0,
                "roughnessFactor" : 0
            }
        }
    ],
    "meshes" : [
        {
            "name" : "Green_mkf_g5.001",
            "primitives" : [
                {
                    "attributes" : {
                        "POSITION" : 0,
                        "NORMAL" : 1,
                        "TANGENT" : 2,
                        "TEXCOORD_0" : 3
                    },
                    "indices" : 4,
                    "material" : 0
                },
                {
                    "attributes" : {
                        "POSITION" : 5,
                        "NORMAL" : 6,
                        "TANGENT" : 7,
                        "TEXCOORD_0" : 8
                    },
                    "indices" : 9,
                    "material" : 1
                },
                {
                    "attributes" : {
                        "POSITION" : 10,
                        "NORMAL" : 11,
                        "TANGENT" : 12,
                        "TEXCOORD_0" : 13
                    },
                    "indices" : 14,
                    "material" : 2
                }
            ]
        }
    ],
    "textures" : [
        {
            "sampler" : 0,
            "source" : 0
        }
    ],
    "images" : [
        {
            "bufferView" : 10,
            "mimeType" : "image/jpeg",
            "name" : "zemly gfjk2"
        }
    ],
    "accessors" : [
        {
            "bufferView" : 0,
            "componentType" : 5126,
            "count" : 17808,
            "max" : [
                69.81826782226562,
                93.09362030029297,
                74.18849182128906
            ],
            "min" : [
                -82.35657501220703,
                -89.99295043945312,
                -125.80902099609375
            ],
            "type" : "VEC3"
        },
        {
            "bufferView" : 1,
            "componentType" : 5126,
            "count" : 17808,
            "type" : "VEC3"
        },
        {
            "bufferView" : 2,
            "componentType" : 5126,
            "count" : 17808,
            "type" : "VEC4"
        },
        {
            "bufferView" : 3,
            "componentType" : 5126,
            "count" : 17808,
            "type" : "VEC2"
        },
        {
            "bufferView" : 4,
            "componentType" : 5123,
            "count" : 40074,
            "type" : "SCALAR"
        },
        {
            "bufferView" : 5,
            "componentType" : 5126,
            "count" : 42,
            "max" : [
                46.60660934448242,
                53.96866989135742,
                76.2486572265625
            ],
            "min" : [
                -61.84444808959961,
                -54.35175704956055,
                63.19027328491211
            ],
            "type" : "VEC3"
        },
        {
            "bufferView" : 6,
            "componentType" : 5126,
            "count" : 42,
            "type" : "VEC3"
        },
        {
            "bufferView" : 7,
            "componentType" : 5126,
            "count" : 42,
            "type" : "VEC4"
        },
        {
            "bufferView" : 8,
            "componentType" : 5126,
            "count" : 42,
            "type" : "VEC2"
        },
        {
            "bufferView" : 9,
            "componentType" : 5123,
            "count" : 153,
            "type" : "SCALAR"
        },
        {
            "bufferView" : 11,
            "componentType" : 5126,
            "count" : 227,
            "max" : [
                50.58574295043945,
                59.028499603271484,
                165.90060424804688
            ],
            "min" : [
                -66.53497314453125,
                -58.09223175048828,
                67.78804016113281
            ],
            "type" : "VEC3"
        },
        {
            "bufferView" : 12,
            "componentType" : 5126,
            "count" : 227,
            "type" : "VEC3"
        },
        {
            "bufferView" : 13,
            "componentType" : 5126,
            "count" : 227,
            "type" : "VEC4"
        },
        {
            "bufferView" : 14,
            "componentType" : 5126,
            "count" : 227,
            "type" : "VEC2"
        },
        {
            "bufferView" : 15,
            "componentType" : 5123,
            "count" : 1068,
            "type" : "SCALAR"
        }
    ],
    "bufferViews" : [
        {
            "buffer" : 0,
            "byteLength" : 213696,
            "byteOffset" : 0
        },
        {
            "buffer" : 0,
            "byteLength" : 213696,
            "byteOffset" : 213696
        },
        {
            "buffer" : 0,
            "byteLength" : 284928,
            "byteOffset" : 427392
        },
        {
            "buffer" : 0,
            "byteLength" : 142464,
            "byteOffset" : 712320
        },
        {
            "buffer" : 0,
            "byteLength" : 80148,
            "byteOffset" : 854784
        },
        {
            "buffer" : 0,
            "byteLength" : 504,
            "byteOffset" : 934932
        },
        {
            "buffer" : 0,
            "byteLength" : 504,
            "byteOffset" : 935436
        },
        {
            "buffer" : 0,
            "byteLength" : 672,
            "byteOffset" : 935940
        },
        {
            "buffer" : 0,
            "byteLength" : 336,
            "byteOffset" : 936612
        },
        {
            "buffer" : 0,
            "byteLength" : 306,
            "byteOffset" : 936948
        },
        {
            "buffer" : 0,
            "byteLength" : 1083223,
            "byteOffset" : 937256
        },
        {
            "buffer" : 0,
            "byteLength" : 2724,
            "byteOffset" : 2020480
        },
        {
            "buffer" : 0,
            "byteLength" : 2724,
            "byteOffset" : 2023204
        },
        {
            "buffer" : 0,
            "byteLength" : 3632,
            "byteOffset" : 2025928
        },
        {
            "buffer" : 0,
            "byteLength" : 1816,
            "byteOffset" : 2029560
        },
        {
            "buffer" : 0,
            "byteLength" : 2136,
            "byteOffset" : 2031376
        }
    ],
    "samplers" : [
        {
            "magFilter" : 9729,
            "minFilter" : 9987
        }
    ],
    "buffers" : [
        {
            "byteLength" : 2033512,
            "uri" : "data:application/octet-stream;base64,"
        }
    ]
}
