{
    "asset" : {
        "generator" : "Khronos glTF Blender I/O v1.6.16",
        "version" : "2.0"
    },
    "scene" : 0,
    "scenes" : [
        {
            "extras" : {
                "b_export" : 1,
                "export_path" : "F:\\Programmi\\Blender2.93\\2.93\\Projects\\3d-gallery\\model\\a-frame\\export13\\",
                "s_project_name" : "3d-gallery",
                "b_settings" : 1,
                "b_renderer" : 1,
                "b_player" : 1,
                "b_interactive" : 1,
                "b_bake_lightmap" : 1,
                "s_output" : "exporting...",
                "b_use_lightmapper" : 0,
                "b_show_env_sky" : 1,
                "b_raycast" : 0,
                "b_joystick" : 0,
                "f_player_height" : 1,
                "b_use_default_lights" : 0,
                "b_physicallyCorrectLights" : 0,
                "b_colorManagement" : 1,
                "b_aa" : 1,
                "b_stats" : 1,
                "b_cast_shadows" : 1,
                "b_cubemap" : 1,
                "b_cubemap_background" : 1,
                "b_camera_cube" : 1,
                "s_showhide_object" : "Cube.001",
                "s_toggle_object" : "{\"1\": \"Cube.001\", \"2\": \"Cube.002\"}",
                "b_vr_controllers" : 0
            },
            "name" : "Scene",
            "nodes" : [
                0
            ]
        }
    ],
    "nodes" : [
        {
            "extras" : {
                "mr displacement use global settings" : 1,
                "mr displacement view dependent" : 1,
                "mr displacement method" : 6,
                "mr displacement smoothing on" : 1,
                "mr displacement edge length" : 2,
                "mr displacement max displace" : 200,
                "mr displacement parametric subdivision level" : 5,
                "MaxHandle" : 3989
            },
            "mesh" : 0,
            "name" : "Bar_painting",
            "rotation" : [
                0,
                0.6755899786949158,
                -0.737277626991272,
                -3.132014683160378e-07
            ],
            "scale" : [
                -0.002251354046165943,
                -0.00405022781342268,
                -0.002251353580504656
            ]
        }
    ],
    "meshes" : [
        {
            "name" : "Mesh.003",
            "primitives" : [
                {
                    "attributes" : {
                        "POSITION" : 0,
                        "NORMAL" : 1,
                        "TANGENT" : 2,
                        "TEXCOORD_0" : 3
                    },
                    "indices" : 4
                }
            ]
        }
    ],
    "accessors" : [
        {
            "bufferView" : 0,
            "componentType" : 5126,
            "count" : 404,
            "max" : [
                127.12299346923828,
                2.0007917881011963,
                122.33692932128906
            ],
            "min" : [
                -127.12299346923828,
                -3.4058172702789307,
                -122.33692932128906
            ],
            "type" : "VEC3"
        },
        {
            "bufferView" : 1,
            "componentType" : 5126,
            "count" : 404,
            "type" : "VEC3"
        },
        {
            "bufferView" : 2,
            "componentType" : 5126,
            "count" : 404,
            "type" : "VEC4"
        },
        {
            "bufferView" : 3,
            "componentType" : 5126,
            "count" : 404,
            "type" : "VEC2"
        },
        {
            "bufferView" : 4,
            "componentType" : 5123,
            "count" : 636,
            "type" : "SCALAR"
        }
    ],
    "bufferViews" : [
        {
            "buffer" : 0,
            "byteLength" : 4848,
            "byteOffset" : 0
        },
        {
            "buffer" : 0,
            "byteLength" : 4848,
            "byteOffset" : 4848
        },
        {
            "buffer" : 0,
            "byteLength" : 6464,
            "byteOffset" : 9696
        },
        {
            "buffer" : 0,
            "byteLength" : 3232,
            "byteOffset" : 16160
        },
        {
            "buffer" : 0,
            "byteLength" : 1272,
            "byteOffset" : 19392
        }
    ],
    "buffers" : [
        {
            "byteLength" : 20664,
            "uri" : "data:application/octet-stream;base64,"
        }
    ]
}
