{
    "asset" : {
        "generator" : "Khronos glTF Blender I/O v1.6.16",
        "version" : "2.0"
    },
    "scene" : 0,
    "scenes" : [
        {
            "extras" : {
                "b_export" : 1,
                "export_path" : "F:\\Programmi\\Blender2.93\\2.93\\Projects\\3d-gallery\\model\\a-frame\\export13\\",
                "s_project_name" : "3d-gallery",
                "b_settings" : 1,
                "b_renderer" : 1,
                "b_player" : 1,
                "b_interactive" : 1,
                "b_bake_lightmap" : 1,
                "s_output" : "exporting...",
                "b_use_lightmapper" : 0,
                "b_show_env_sky" : 1,
                "b_raycast" : 0,
                "b_joystick" : 0,
                "f_player_height" : 1,
                "b_use_default_lights" : 0,
                "b_physicallyCorrectLights" : 0,
                "b_colorManagement" : 1,
                "b_aa" : 1,
                "b_stats" : 1,
                "b_cast_shadows" : 1,
                "b_cubemap" : 1,
                "b_cubemap_background" : 1,
                "b_camera_cube" : 1,
                "s_showhide_object" : "Cube.001",
                "s_toggle_object" : "{\"1\": \"Cube.001\", \"2\": \"Cube.002\"}",
                "b_vr_controllers" : 0
            },
            "name" : "Scene",
            "nodes" : [
                0
            ]
        }
    ],
    "nodes" : [
        {
            "extras" : {},
            "mesh" : 0,
            "name" : "Bar_Bottle_bottles_3",
            "rotation" : [
                0,
                -0.9944565892219543,
                0,
                -0.10514812916517258
            ],
            "scale" : [
                0.06680295616388321,
                0.06680293381214142,
                0.06680295616388321
            ]
        }
    ],
    "meshes" : [
        {
            "name" : "Cylinder.011",
            "primitives" : [
                {
                    "attributes" : {
                        "POSITION" : 0,
                        "NORMAL" : 1,
                        "TANGENT" : 2,
                        "TEXCOORD_0" : 3
                    },
                    "indices" : 4
                }
            ]
        }
    ],
    "accessors" : [
        {
            "bufferView" : 0,
            "componentType" : 5126,
            "count" : 23586,
            "max" : [
                2.132357597351074,
                1.20777428150177,
                1.8562091588974
            ],
            "min" : [
                -2.130441904067993,
                -3.8173410892486572,
                -1.8550065755844116
            ],
            "type" : "VEC3"
        },
        {
            "bufferView" : 1,
            "componentType" : 5126,
            "count" : 23586,
            "type" : "VEC3"
        },
        {
            "bufferView" : 2,
            "componentType" : 5126,
            "count" : 23586,
            "type" : "VEC4"
        },
        {
            "bufferView" : 3,
            "componentType" : 5126,
            "count" : 23586,
            "type" : "VEC2"
        },
        {
            "bufferView" : 4,
            "componentType" : 5123,
            "count" : 75264,
            "type" : "SCALAR"
        }
    ],
    "bufferViews" : [
        {
            "buffer" : 0,
            "byteLength" : 283032,
            "byteOffset" : 0
        },
        {
            "buffer" : 0,
            "byteLength" : 283032,
            "byteOffset" : 283032
        },
        {
            "buffer" : 0,
            "byteLength" : 377376,
            "byteOffset" : 566064
        },
        {
            "buffer" : 0,
            "byteLength" : 188688,
            "byteOffset" : 943440
        },
        {
            "buffer" : 0,
            "byteLength" : 150528,
            "byteOffset" : 1132128
        }
    ],
    "buffers" : [
        {
            "byteLength" : 1282656,
            "uri" : "data:application/octet-stream;base64,"
        }
    ]
}
