{
    "asset" : {
        "generator" : "Khronos glTF Blender I/O v1.6.16",
        "version" : "2.0"
    },
    "scene" : 0,
    "scenes" : [
        {
            "extras" : {
                "b_export" : 1,
                "export_path" : "F:\\Programmi\\Blender2.93\\2.93\\Projects\\3d-gallery\\model\\a-frame\\export13\\",
                "s_project_name" : "3d-gallery",
                "b_settings" : 1,
                "b_renderer" : 1,
                "b_player" : 1,
                "b_interactive" : 1,
                "b_bake_lightmap" : 1,
                "s_output" : "exporting...",
                "b_use_lightmapper" : 0,
                "b_show_env_sky" : 1,
                "b_raycast" : 0,
                "b_joystick" : 0,
                "f_player_height" : 1,
                "b_use_default_lights" : 0,
                "b_physicallyCorrectLights" : 0,
                "b_colorManagement" : 1,
                "b_aa" : 1,
                "b_stats" : 1,
                "b_cast_shadows" : 1,
                "b_cubemap" : 1,
                "b_cubemap_background" : 1,
                "b_camera_cube" : 1,
                "s_showhide_object" : "Cube.001",
                "s_toggle_object" : "{\"1\": \"Cube.001\", \"2\": \"Cube.002\"}",
                "b_vr_controllers" : 0
            },
            "name" : "Scene",
            "nodes" : [
                0
            ]
        }
    ],
    "nodes" : [
        {
            "extras" : {
                "mr displacement use global settings" : 1,
                "mr displacement view dependent" : 1,
                "mr displacement method" : 6,
                "mr displacement smoothing on" : 1,
                "mr displacement edge length" : 2,
                "mr displacement max displace" : 200,
                "mr displacement parametric subdivision level" : 5,
                "MaxHandle" : 3989
            },
            "mesh" : 0,
            "name" : "Bar_grass3",
            "rotation" : [
                -0.2126314789056778,
                0.6743793487548828,
                -0.6743798851966858,
                -0.21263135969638824
            ],
            "scale" : [
                -0.001923665520735085,
                -0.003460709238424897,
                -0.0019236651714891195
            ]
        }
    ],
    "meshes" : [
        {
            "name" : "Mesh.001",
            "primitives" : [
                {
                    "attributes" : {
                        "POSITION" : 0,
                        "NORMAL" : 1,
                        "TANGENT" : 2,
                        "TEXCOORD_0" : 3
                    },
                    "indices" : 4
                }
            ]
        }
    ],
    "accessors" : [
        {
            "bufferView" : 0,
            "componentType" : 5126,
            "count" : 670,
            "max" : [
                80.13011932373047,
                45.09858703613281,
                118.00164794921875
            ],
            "min" : [
                -82.48583221435547,
                -45.54172134399414,
                -143.8513946533203
            ],
            "type" : "VEC3"
        },
        {
            "bufferView" : 1,
            "componentType" : 5126,
            "count" : 670,
            "type" : "VEC3"
        },
        {
            "bufferView" : 2,
            "componentType" : 5126,
            "count" : 670,
            "type" : "VEC4"
        },
        {
            "bufferView" : 3,
            "componentType" : 5126,
            "count" : 670,
            "type" : "VEC2"
        },
        {
            "bufferView" : 4,
            "componentType" : 5123,
            "count" : 2844,
            "type" : "SCALAR"
        }
    ],
    "bufferViews" : [
        {
            "buffer" : 0,
            "byteLength" : 8040,
            "byteOffset" : 0
        },
        {
            "buffer" : 0,
            "byteLength" : 8040,
            "byteOffset" : 8040
        },
        {
            "buffer" : 0,
            "byteLength" : 10720,
            "byteOffset" : 16080
        },
        {
            "buffer" : 0,
            "byteLength" : 5360,
            "byteOffset" : 26800
        },
        {
            "buffer" : 0,
            "byteLength" : 5688,
            "byteOffset" : 32160
        }
    ],
    "buffers" : [
        {
            "byteLength" : 37848,
            "uri" : "data:application/octet-stream;base64,"
        }
    ]
}
