{
    "asset" : {
        "generator" : "Khronos glTF Blender I/O v1.6.16",
        "version" : "2.0"
    },
    "scene" : 0,
    "scenes" : [
        {
            "extras" : {
                "b_export" : 1,
                "export_path" : "F:\\Programmi\\Blender2.93\\2.93\\Projects\\3d-gallery\\model\\a-frame\\export13\\",
                "s_project_name" : "3d-gallery",
                "b_settings" : 1,
                "b_renderer" : 1,
                "b_player" : 1,
                "b_interactive" : 1,
                "b_bake_lightmap" : 1,
                "s_output" : "exporting...",
                "b_use_lightmapper" : 0,
                "b_show_env_sky" : 1,
                "b_raycast" : 0,
                "b_joystick" : 0,
                "f_player_height" : 1,
                "b_use_default_lights" : 0,
                "b_physicallyCorrectLights" : 0,
                "b_colorManagement" : 1,
                "b_aa" : 1,
                "b_stats" : 1,
                "b_cast_shadows" : 1,
                "b_cubemap" : 1,
                "b_cubemap_background" : 1,
                "b_camera_cube" : 1,
                "s_showhide_object" : "Cube.001",
                "s_toggle_object" : "{\"1\": \"Cube.001\", \"2\": \"Cube.002\"}",
                "b_vr_controllers" : 0
            },
            "name" : "Scene",
            "nodes" : [
                0
            ]
        }
    ],
    "nodes" : [
        {
            "extras" : {
                "mr displacement use global settings" : 1,
                "mr displacement view dependent" : 1,
                "mr displacement method" : 6,
                "mr displacement smoothing on" : 1,
                "mr displacement edge length" : 2,
                "mr displacement max displace" : 200,
                "mr displacement parametric subdivision level" : 5,
                "MaxHandle" : 3989
            },
            "mesh" : 0,
            "name" : "Bar_grass2",
            "rotation" : [
                -0.2126314789056778,
                0.6743793487548828,
                -0.6743798851966858,
                -0.21263135969638824
            ],
            "scale" : [
                -0.0026626961771398783,
                -0.004790241364389658,
                -0.0026626961771398783
            ]
        }
    ],
    "meshes" : [
        {
            "name" : "Mesh.002",
            "primitives" : [
                {
                    "attributes" : {
                        "POSITION" : 0,
                        "NORMAL" : 1,
                        "TANGENT" : 2,
                        "TEXCOORD_0" : 3
                    },
                    "indices" : 4
                }
            ]
        }
    ],
    "accessors" : [
        {
            "bufferView" : 0,
            "componentType" : 5126,
            "count" : 2208,
            "max" : [
                58.53596496582031,
                22.876934051513672,
                77.0286865234375
            ],
            "min" : [
                -58.6722412109375,
                -22.898914337158203,
                -80.80697631835938
            ],
            "type" : "VEC3"
        },
        {
            "bufferView" : 1,
            "componentType" : 5126,
            "count" : 2208,
            "type" : "VEC3"
        },
        {
            "bufferView" : 2,
            "componentType" : 5126,
            "count" : 2208,
            "type" : "VEC4"
        },
        {
            "bufferView" : 3,
            "componentType" : 5126,
            "count" : 2208,
            "type" : "VEC2"
        },
        {
            "bufferView" : 4,
            "componentType" : 5123,
            "count" : 6126,
            "type" : "SCALAR"
        }
    ],
    "bufferViews" : [
        {
            "buffer" : 0,
            "byteLength" : 26496,
            "byteOffset" : 0
        },
        {
            "buffer" : 0,
            "byteLength" : 26496,
            "byteOffset" : 26496
        },
        {
            "buffer" : 0,
            "byteLength" : 35328,
            "byteOffset" : 52992
        },
        {
            "buffer" : 0,
            "byteLength" : 17664,
            "byteOffset" : 88320
        },
        {
            "buffer" : 0,
            "byteLength" : 12252,
            "byteOffset" : 105984
        }
    ],
    "buffers" : [
        {
            "byteLength" : 118236,
            "uri" : "data:application/octet-stream;base64,"
        }
    ]
}
